<svg width="120" height="40" viewBox="0 0 120 40" fill="none" xmlns="http://www.w3.org/2000/svg">
<path d="M12.722 7C15.8924 7 18.7966 8.04715 21.4348 10.1415C22.0133 10.6274 22.5745 11.177 23.1183 11.7903C23.0952 11.8366 22.0364 12.849 19.9421 14.8276H19.9248C17.7611 12.5482 15.3312 11.4084 12.6352 11.4084C9.80041 11.4084 7.53254 12.606 5.83165 15.0012C4.97541 16.3434 4.5473 17.7781 4.5473 19.3055V19.6699C4.5473 21.9378 5.32253 23.8585 6.87301 25.4322C8.49291 26.9364 10.4426 27.6885 12.722 27.6885C14.851 27.6885 16.7197 27.0231 18.328 25.6925C18.733 25.3917 19.2653 24.9231 19.9248 24.2867H19.9421C19.9653 24.2867 20.9893 25.3454 23.0142 27.4628V27.4802C22.1232 28.3364 21.3885 28.9844 20.81 29.4241C19.352 30.4654 18.1255 31.1192 17.1305 31.3853C15.7883 31.8366 14.2956 32.0622 12.6526 32.0622C8.16315 32.0622 4.67457 30.3439 2.18687 26.9074C0.728956 24.8131 0 22.3486 0 19.5137C0 15.7648 1.31906 12.6928 3.95719 10.2977C6.54903 8.09922 9.47064 7 12.722 7Z" fill="#0F43F9"/>
<path d="M26.7978 7.10414H32.1435C35.1056 7.10414 37.1652 7.45126 38.3222 8.1455C39.6066 8.85132 40.567 10.0257 41.2034 11.6688C41.4695 12.525 41.6025 13.3639 41.6025 14.1854V14.4978C41.6025 17.1591 40.4628 19.1203 38.1834 20.3815C37.7669 20.6014 37.3329 20.7981 36.8817 20.9717V20.989L42.7654 32.0448L42.7307 32.0622H37.5933C37.547 32.0159 37.0842 31.1539 36.2048 29.4761C36.1354 29.372 34.7237 26.7165 31.9699 21.5097H31.5187V32.0275C31.5187 32.0506 31.5071 32.0622 31.4839 32.0622H26.7978C26.7747 32.0622 26.7631 32.0506 26.7631 32.0275V16.893C26.7631 16.8698 26.7747 16.8583 26.7978 16.8583H31.9699C33.8444 16.8583 35.0072 16.7657 35.4585 16.5806C36.0139 16.407 36.4131 16.1235 36.6561 15.7301C36.8759 15.3251 36.9858 14.8854 36.9858 14.4111V14.2028C36.9858 13.3003 36.5519 12.606 35.6841 12.12C35.1403 11.8771 34.3998 11.7556 33.4625 11.7556C31.5418 11.744 29.9508 11.7382 28.6896 11.7382H26.7978C26.7747 11.7382 26.7631 11.7266 26.7631 11.7035V7.13885C26.7631 7.11571 26.7747 7.10414 26.7978 7.10414Z" fill="#0F43F9"/>
<path d="M46.2366 7.13885H59.7744C59.7975 7.13885 59.8091 7.15042 59.8091 7.17356V11.7382C59.8091 11.7614 59.7975 11.7729 59.7744 11.7729H46.2366C46.2135 11.7729 46.2019 11.7614 46.2019 11.7382V7.17356C46.2019 7.15042 46.2135 7.13885 46.2366 7.13885ZM46.2366 16.2855H59.7744C59.7975 16.2855 59.8091 16.2971 59.8091 16.3202V20.8154C59.8091 20.8386 59.7975 20.8502 59.7744 20.8502H50.9228V27.3934H59.7744C59.7975 27.405 59.8091 27.4165 59.8091 27.4281V32.0275C59.8091 32.0506 59.7975 32.0622 59.7744 32.0622H46.2366C46.2135 32.0622 46.2019 32.0506 46.2019 32.0275V16.3202C46.2019 16.2971 46.2135 16.2855 46.2366 16.2855Z" fill="#0F43F9"/>
<path d="M76.7313 7.13885C76.766 7.13885 77.0379 7.87938 77.547 9.36043C80.729 18.3277 82.3489 22.9155 82.4067 23.1238H77.547C77.5123 23.066 77.2057 22.1981 76.6271 20.5204L74.4403 14.3937H74.4229C74.1684 15.1342 72.0625 21.0006 68.1053 31.9928C68.1053 32.0391 68.0879 32.0622 68.0532 32.0622H63.2456C63.2224 32.0622 63.2109 32.0506 63.2109 32.0275C63.9977 29.8406 66.3176 23.4015 70.1707 12.7102C71.455 9.14637 72.1261 7.28927 72.184 7.13885H76.7313ZM79.1091 27.4281H83.9167C83.9514 27.4281 84.0498 27.6885 84.2117 28.2091L85.5829 32.0448L85.5482 32.0622H80.7232C80.7 32.0506 80.5091 31.5357 80.1504 30.5175L79.0743 27.4455L79.1091 27.4281Z" fill="#0F43F9"/>
<path d="M89.2103 7.06942H102.956C102.979 7.06942 102.991 7.081 102.991 7.10414V11.7035C102.991 11.7266 102.979 11.7382 102.956 11.7382H89.2103C89.1872 11.7382 89.1756 11.7266 89.1756 11.7035V7.10414C89.1756 7.081 89.1872 7.06942 89.2103 7.06942ZM93.6535 17.0318H98.409C98.4322 17.0318 98.4437 17.0376 98.4437 17.0492V32.0275C98.4437 32.0506 98.4322 32.0622 98.409 32.0622H93.6535C93.6303 32.0622 93.6187 32.0506 93.6187 32.0275V17.0492C93.6187 17.0376 93.6303 17.0318 93.6535 17.0318Z" fill="#0F43F9"/>
<path d="M106.219 7.06942H119.965C119.988 7.06942 120 7.081 120 7.10414V11.7035C120 11.7266 119.988 11.7382 119.965 11.7382H106.219C106.196 11.7382 106.185 11.7266 106.185 11.7035V7.10414C106.185 7.081 106.196 7.06942 106.219 7.06942ZM110.662 17.0318H115.418C115.441 17.0318 115.453 17.0376 115.453 17.0492V32.0275C115.453 32.0506 115.441 32.0622 115.418 32.0622H110.662C110.639 32.0622 110.628 32.0506 110.628 32.0275V17.0492C110.628 17.0376 110.639 17.0318 110.662 17.0318Z" fill="#0F43F9"/>
</svg>
